<?xml version="1.0" encoding="utf-8"?>
<!-- Generator: Adobe Illustrator 27.0.0, SVG Export Plug-In . SVG Version: 6.00 Build 0)  -->
<svg version="1.1" id="Layer_1" xmlns="http://www.w3.org/2000/svg" xmlns:xlink="http://www.w3.org/1999/xlink" x="0px" y="0px"
	 viewBox="0 0 1294 140" style="enable-background:new 0 0 1294 140;" xml:space="preserve">
<style type="text/css">
	.st0{opacity:0.15;fill-rule:evenodd;clip-rule:evenodd;fill:#C4C4C4;enable-background:new    ;}
	.st1{fill-rule:evenodd;clip-rule:evenodd;fill:url(#Wave_00000078727515939639356640000002763521460565047189_);}
</style>
<g id="Ressource">
	<g id="wave_header">
		<g id="Group-4-Copy" transform="translate(-5.000000, 0.000000)">
			<path id="Wave" class="st0" d="M0,0h1300c-0.2,26.7-0.2,69.7,0,129.1c-309,10.9-265-14.7-598.5-5.2S390.6,144.3,0,121.3
				C1,88.1,1,47.7,0,0z"/>
			
				<radialGradient id="Wave_00000022554512092009568570000015373320197552627083_" cx="382.5" cy="75.5" r="641.005" fx="-258.191" fy="95.5633" gradientUnits="userSpaceOnUse">
				<stop  offset="0.2548" style="stop-color:#00823B"/>
				<stop  offset="1" style="stop-color:#BF4545"/>
			</radialGradient>
			
				<path id="Wave_00000132768174530656445880000011547987348532558752_" style="fill-rule:evenodd;clip-rule:evenodd;fill:url(#Wave_00000022554512092009568570000015373320197552627083_);" d="
				M1302,0H377.3H1c0,60.1,0,98.5,0,115.1c80.4-3.2,154.2-7.9,343.7-3.2c189.5,4.7,256.5,23.4,532,5.6
				c183.7-11.8,325.4-10.9,425.3,2.6V0z"/>
		</g>
	</g>
</g>
</svg>
